<?xml version="1.0" encoding="utf-8"?>
<!-- Generator: Adobe Illustrator 19.0.0, SVG Export Plug-In . SVG Version: 6.00 Build 0)  -->
<svg version="1.1" id="Layer_1" xmlns="http://www.w3.org/2000/svg" xmlns:xlink="http://www.w3.org/1999/xlink" x="0px" y="0px"
	 viewBox="0 0 595.3 841.9" style="enable-background:new 0 0 595.3 841.9;" xml:space="preserve">
<style type="text/css">
	.st0{fill:#DE2547;}
</style>
<g>
	<g>
		<g>
			<g>
				<g>
					<path class="st0" d="M485.4,8.8c0.7,0,0.5-0.4,0.6-0.5C484.8,8.4,485.5,8.9,485.4,8.8z"/>
					<polygon class="st0" points="473.7,9.7 473.9,9.6 472.1,10 					"/>
					<path class="st0" d="M462.7,9.7c1,0.7,4-0.1,6,0.1l0.3,0.2l0.9-0.6C467.4,9.5,464.3,9.9,462.7,9.7z"/>
					<path class="st0" d="M456.8,8.2c0.4,0.3-1.3,0.2,1.4,0.1c-0.1,0-0.2,0-0.2-0.1C457.7,8.2,457.3,8.2,456.8,8.2z"/>
					<path class="st0" d="M457.9,8.2C459.1,8.2,457.1,8,457.9,8.2L457.9,8.2z"/>
					<path class="st0" d="M452.6,8.4l1.5-0.2c-0.3-0.2-1.7-0.2-1.2-0.3C451.3,7.9,451.7,8.1,452.6,8.4z"/>
					<path class="st0" d="M451.1,8.9l0.8-0.1C451.8,8.7,451.5,8.7,451.1,8.9z"/>
					<path class="st0" d="M453.6,8.5l-1.7,0.2c0.2,0.1,0.2,0.3,0.8-0.1C452.5,8.9,452.9,8.7,453.6,8.5z"/>
					<path class="st0" d="M454.5,8.7c0.9,0.2,2,0.3,0.4,0.5C457.9,9.1,457.4,8.6,454.5,8.7z"/>
					<path class="st0" d="M462.1,10.5l1.1,0.2l1-0.2C463.7,10.5,462,10.2,462.1,10.5z"/>
					<path class="st0" d="M443,8c-0.1,0.2,0.5,0.4,0.6,0.6l1.1-0.2C444.2,8.3,443.1,8.2,443,8z"/>
					<path class="st0" d="M443.7,8.6L442,8.8C443.5,8.9,443.8,8.7,443.7,8.6z"/>
					<polygon class="st0" points="450.8,9.7 453.6,9.1 450.3,9.7 					"/>
					<polygon class="st0" points="436.6,8 437.6,7.6 435.8,8.1 					"/>
					<path class="st0" d="M432.3,8c0.7-0.3-1-0.5-0.2-0.7c-1.2,0.1-2.2,0.3-3,0.5C430,7.8,431,7.8,432.3,8z"/>
					<path class="st0" d="M427.6,8.2c0.5-0.1,1-0.2,1.5-0.3C428.5,7.9,428.1,8,427.6,8.2z"/>
					<path class="st0" d="M439.1,8.8c-0.1-0.1-0.4-0.3-1.3-0.4l0.7,0.4C438.6,8.8,438.9,8.8,439.1,8.8z"/>
					<path class="st0" d="M438.5,8.8L438.5,8.8c-0.7,0-1.2,0-1.5,0C437.2,8.7,437.6,8.8,438.5,8.8z"/>
					<path class="st0" d="M439.3,8.8c-0.1,0-0.1,0-0.2,0C439.2,8.8,439.2,8.8,439.3,8.8z"/>
					<path class="st0" d="M446.4,9.3c-1,0.2-3.1,0.5-1.1,0.9C446.1,9.8,444.9,9.6,446.4,9.3z"/>
					<path class="st0" d="M440.1,9.3l1.8,0.1c0-0.1-0.4-0.3,0.1-0.4L440.1,9.3z"/>
					<polygon class="st0" points="439.2,9.4 440.1,9.3 439.4,9.3 					"/>
					<path class="st0" d="M430.6,8.6c-0.8,0.2-1.6,0.2-2.6,0.2c1,0.1,2.1,0.1,3.1,0.1C431.3,8.8,431.7,8.6,430.6,8.6z"/>
					<path class="st0" d="M434.4,8.7c-0.1,0-0.1,0-0.2,0C434.4,8.8,434.5,8.8,434.4,8.7z"/>
					<path class="st0" d="M418.6,8.8c0.1,0,0.1,0.1,0.2,0.1c0,0,0,0,0-0.1L418.6,8.8z"/>
					<path class="st0" d="M431.3,9c0.8,0.1,1.2,0,1.7-0.2c-0.6,0-1.2,0.1-1.8,0.1C431.1,9,431.1,9.1,431.3,9z"/>
					<path class="st0" d="M424.9,8.4c0.4,0.1,0.9,0.2,1.3,0.2C425.9,8.5,425.1,8.3,424.9,8.4z"/>
					<path class="st0" d="M434,8.6c0,0,0.1,0,0.1,0C433.9,8.5,433.9,8.6,434,8.6z"/>
					<path class="st0" d="M434,8.6c-0.4,0.1-0.7,0.2-1,0.3c0.5,0,0.9-0.1,1.3-0.1C434.2,8.7,434.1,8.7,434,8.6z"/>
					<path class="st0" d="M415.8,11.6c0.1-0.4,2.2-0.8,3.9-0.3c1.7-0.3,0.6-1.6-0.9-2.3c-0.1,0.2-0.1,0.3-1.8,0.6
						c0.6,0.2,3.9,0.5,2.4,0.9c-2.3,0.2-1.9-0.1-3.1-0.3c1,0.5-3,0.7-2.5,1.4l2.1-0.3C415.9,11.3,415.2,11.5,415.8,11.6z"/>
					<path class="st0" d="M422.2,9l0.7,0c-0.8-0.1-1.4-0.2-2.5-0.5c-1.2,0.2-1.5,0.3-1.5,0.5l3.6,0.1L422.2,9z"/>
					<path class="st0" d="M426.2,8.9c-0.6,0.4-2.3,0.6-1.2,1.1c2.1,0,1.5-0.4,2.8-0.5C424.2,9.5,428.7,9.2,426.2,8.9
						c0.7,0,1.3,0,1.9-0.1c-0.6-0.1-1.2-0.1-1.8-0.2c0,0,0.1,0,0.1,0l0,0c0,0,0,0,0,0c0.1,0.1,0.2,0.1,0,0.1c0,0-0.1,0-0.1,0
						C426.3,8.8,426.2,8.9,426.2,8.9c-1-0.1-0.2-0.1,0.2-0.2c0,0,0,0,0-0.1c0,0,0,0,0,0l-3.5,0.2C423.6,9,424.5,9,426.2,8.9z"/>
					<path class="st0" d="M443.5,11.1c-0.1,0-0.1-0.1-0.1-0.1C443.2,11,443.1,11.1,443.5,11.1z"/>
					<path class="st0" d="M442.1,10.8c0.3-0.1,0.5-0.2,1.3-0.2c0.7,0.1,0,0.2,0,0.3c0.5-0.1,1.7-0.3,0.2-0.5l-0.2,0.1
						c-1.4-0.1-3.2-0.7-2.9-0.7C440.8,10.1,441.2,10.4,442.1,10.8z"/>
					<path class="st0" d="M434,10l-2.9,0.2l1.5,0.4l-0.1-0.2C434.2,10.4,433.8,10.1,434,10z"/>
					<polygon class="st0" points="418.3,8.6 418.7,8.2 417,8.8 					"/>
					<polygon class="st0" points="414.6,8.7 414.7,8.3 413.7,8.5 					"/>
					<path class="st0" d="M203.4,13.6l-0.8,0.1C202.9,13.7,203.2,13.6,203.4,13.6z"/>
					<path class="st0" d="M209.5,13.6l0.2-0.2C209.4,13.5,209.3,13.6,209.5,13.6z"/>
					<path class="st0" d="M322.7,8.7c-1.2-0.4-2.6-0.9-2.5-0.5l0.4,0.4C321.4,8.6,322.1,8.6,322.7,8.7z"/>
					<path class="st0" d="M259.7,11.3c0.1,0,0.2,0.1,0.4,0.1c0.3-0.1,0.6-0.3,0.8-0.4C260.5,11.1,260.1,11.2,259.7,11.3z"/>
					<path class="st0" d="M258.8,13.1l-1.6-0.3C257.6,12.9,258.1,13,258.8,13.1z"/>
					<path class="st0" d="M169.9,14l-1,0.4C170.5,14.5,169.8,14.3,169.9,14z"/>
					<path class="st0" d="M376.2,8.8c-1.1-0.2-1.9-0.2-2.7-0.3C374.9,8.8,375.9,9.2,376.2,8.8z"/>
					<path class="st0" d="M205.8,9c-0.5,0.1-0.7,0.2-0.7,0.3C205.6,9.2,205.9,9.1,205.8,9z"/>
					<path class="st0" d="M370.5,8.6c0.2,0,0.4,0.1,0.6,0.1c0.8-0.1,1.6-0.1,2.5-0.1C372.6,8.4,371.5,8.3,370.5,8.6z"/>
					<path class="st0" d="M48.6,13.7c-0.1,0-0.2,0-0.3-0.1C48.3,13.7,48.4,13.7,48.6,13.7z"/>
					<path class="st0" d="M13.3,9.3c0.3,0,0.9,0,1.5,0C14.5,9.2,14,9.2,13.3,9.3z"/>
					<path class="st0" d="M399.5,8.5C400.3,8.5,399.6,8.4,399.5,8.5L399.5,8.5z"/>
					<path class="st0" d="M403.4,10.2c-0.2,0-0.3,0.1-0.3,0.2C403.1,10.3,403.2,10.2,403.4,10.2z"/>
					<path class="st0" d="M362.6,11.3C362.6,11.3,362.6,11.3,362.6,11.3C362.8,11.4,362.7,11.3,362.6,11.3z"/>
					<path class="st0" d="M400.7,8.7c-0.3-0.1-0.6-0.1-1-0.1C399.8,8.6,400.2,8.6,400.7,8.7z"/>
					<path class="st0" d="M400.5,8.5c0.3,0,0.5,0,0.7,0C401.3,8.4,401.2,8.4,400.5,8.5z"/>
					<path class="st0" d="M398.4,8.5c0.5,0,0.9,0,1.3,0c-0.2,0-0.2-0.1-0.2-0.1C399.3,8.5,398.9,8.5,398.4,8.5z"/>
					<path class="st0" d="M113.6,12.5c-0.1,0-0.1,0-0.2,0C112.6,12.7,113,12.6,113.6,12.5z"/>
					<path class="st0" d="M302,13.2C302,13.2,302.1,13.2,302,13.2C302.1,13.2,302,13.2,302,13.2L302,13.2z"/>
					<path class="st0" d="M299.1,13.5c1.2-0.5,1.9-0.5,2.8-0.4l-0.9-1.3L299.1,13.5z"/>
					<path class="st0" d="M188.7,13.7l2,0.4c-2.4,0.6-4.2,0.4-2.3,1c0.3-1.4,7.8-0.1,8.1-1.5l1.3,0.3c-0.4,0-0.4,0.1-0.8,0.1
						c2.6,0.7,1.9-1,5.2-0.8c1.2,0.1,2,0.3,1.2,0.5l2.6-0.3c0.7,0,0.6,0.3-0.2,0.2l3.9-0.1l0,0c0.6-0.2,1.8-0.5,2.4-0.7
						c1,0.2-0.5,0.1-0.2,0.3l2.2-0.3c0.9,0.4-0.9,0.7-2.4,0.6c2,1.4,1.8-0.3,6.2,0.4l-2,0.2c1.3,0.8,2.9,0.5,5.2,1
						c-0.5-0.3-4.6-1.2-2.3-1.5c0.7,0.1,1.5,0.2,2.8-0.1c0,0.5,1.3,0.4,2.8,0.3l-0.1,0.6c1.7-0.2,1.5-0.5,2.5-0.8
						c1.9,0.1,2.3,0.6,2.7,1c3,0.1-2.1-0.8,1.5-0.9c2.5,0.2,4.2,0,7.2-0.4c1.7,0.2-0.3,0.4,0.3,0.6l1.5-0.5c0.4,0,0.3,0.2,0.2,0.2
						c1.3-0.2,0.1-0.6,2.2-0.8c0.6-0.7,4.2,1,6.7,0.2c0.6,0.2-0.3,0.4-0.1,0.6c3.5-0.5,3-0.4,5.8-1.1l2.4,0.4
						c-1.8-0.5,0.5-1,2.5-1.5c-0.6-0.2-1.2-0.4-1.5-0.5l3.2-0.3c0.4,0.1,0.1,0.3-0.5,0.6c0.2-0.1,0.4-0.1,0.6-0.2
						c1.1,0.2,0.5,0.6-0.3,1c-0.4-0.1-0.8-0.3-1.1-0.4c-0.8,0.4-1.5,0.8-1.4,1.2c0.2-0.1,0.6-0.1,1-0.2c-0.2,0.1-0.3,0.2-0.2,0.3
						c0.1,0.1,0.4-0.1,1-0.2l0.7,0.7l0.2-0.3l4.2,0.4c3-0.7,5.6-1.8,10.3-2.1c-1.2,0.5-0.3,0.9-0.3,1.5c-1.3-0.7-3.7,0.3-6.1,0.1
						c1.3,0.1,1,0.4,0.7,0.5l4.4-0.6c-0.1,0.5,0.9,0.4,2.1,0.6c-0.9-1,3.3-0.7,5-1c0.1,0.3-0.3,0.7-2.5,0.6c2.4,0.8,3.1-1.2,5.5-0.5
						c-0.5,0-0.8,0-1,0.1c1.2-0.3,4.3-0.1,3.6,0.2l-0.5,0c3.5,0.1,10.7,0,11.3-0.8c0,0.1-0.5,1-0.7,1.2l6.3-2.9
						c-0.6,0.7,1.6,2.5-1.4,2.9c0.8,0.1,1.9,0.2,3.6,0c-0.6-0.1-1.4-1.1-0.6-1.1c2.1,0.8,1.5,0.4,4.1,1.1c-0.9-0.2,0.1-1.3,1.5-1.3
						c-0.2,0.2,0.1,1.1-0.4,1.2l3.4-1.1c-0.8,0.2-0.1,1,0.6,1.3c-0.4-0.2,2.9,0,3.8-0.1l-1.4-0.3c3.8,0.2,3.8-1.6,7.5-1.5
						c-0.5,0.2-1.1,1.4,0.8,1.6c0.9-0.6,3.9-2.8,7.2-3.2l0.6,0.3l2.6-0.4c-1.6,0.9-6.1,2.7-8.5,3.4c1.4,0.3,0.4,0.4,2.5,0.4
						c0.8,0.3-1.2,0.5-1.8,0.5l5,0.2c-0.2-0.7,3.8-0.7,3.6-1.2l-5.4,0.7c-0.2-0.7,3.1-1.9,6.6-1.8c0.9,0.3-0.7,1.2-0.6,1.4
						c0.5-0.2,3.3-0.4,3.7-0.3l-1.5,0.4c2,0.3,3.2-0.9,5.6-0.2c0.8,0,2.4,0.9,2.6,0.5c-1.3-0.8-1.6-3.1-0.7-3.7
						c0.3,0.1,4.3,0.7,5.2,1.1c1.3,0.6-2,1.4-0.9,1.9c0-0.2,0.8-0.4,1.1-0.5c0.9,0.2-0.4,0.6,1.5,0.5c0.3-0.7,3.8,0.1,0.9-0.6
						c1.8-0.2,1.9,0.1,4.1,0.1c-0.7-0.4,1.9-1.5,3.7-1.7c-0.1,0.2,0.3,0.4,0.5,0.5c3.7,0.1,5.7,0.4,9.2,0.4c0.3,0.2,2,0.4,1.3,0.7
						c0.5-0.1,1-0.4,2-0.4c2.1,0.6-2.4,0.1-0.8,0.8c0.1-0.4,2.8-0.5,4.3-0.8c-0.5-0.6-3.5-0.1-5,0.1c0-0.8,2.7-1.7,6.3-2.1
						c2.9-0.2,1.2,0.5,1.8,0.4c5.4,0.1,4.6-1.5,9.1-0.9c1.8,0.5,0.1,1.1,0.5,1.5c-2.3,0.2-3.6-0.3-5.2-0.3l2,0.3
						c-0.7,0.2-2.3,0.3-3.2,0.2c1.5,0.5,9.1,0.1,13.3,0.5c0.7-0.2,2-0.4,1.4-0.6l-1.3,0.1c-1.2-0.4,2.5-0.6,0.8-0.8
						c1.8-0.3,3.8-0.8,6.3-0.5l0.5,0.6c-0.1-0.2-1.6-0.4-2.3-0.2c1-0.3,3.8,0.8,5,0l-1.8-0.4c1.8-0.3,4-1,6.2-0.8
						c-1-0.6-0.5,0.1-2.1-0.6c1.4,0.9-5.7,0-3.5,0.9c-1.6-0.8-2.8-0.3-4.9-1.1c0.1,0.2,0.7,0.4-1.1,0.3c-0.1,0.1-0.3,0.1-0.4,0.2
						c-0.1,0-0.1,0-0.1,0c0,0,0.1,0,0.1,0c-0.1,0-0.1,0,0,0c0.4,0.1,0.8,0.2,0.9,0.3c-0.9,0.5-3.9,0.4-4.9,0.7
						c-1.1-0.1,0.5-0.2-0.1-0.4l-1.5,0.4c-0.1-0.4-2.9-0.7-0.3-1l-2.3,0c-1.4-0.3-3.3-0.4-4.4-0.2c-1.1-0.1-2.8,0.5-1.8,0.1
						l-3.7,0.3l0-0.1c-3.6-0.1-7.4,0.7-11.6-0.1c-1.2,0.1-2.5,0.3-4.5,0.1l-0.4-0.4c-1.6,0.1-4.7-0.4-5.4,0c-1.7-1-7.6-0.2-10.3-0.4
						l-0.1,0.5c-1.9,0-3.7,0.1-6.1,0.3l0.1,0.4c-2,0.4-5.2-0.3-8.4-0.3c0.2-0.2,1-0.1,1.6,0c-3.8-1-8.1,0.7-11.5,0
						c-0.9,0.2-1.5,0.1-2.1,0c0.1,0,0.2,0,0.2,0c-0.1,0-0.2,0-0.4,0c-0.4-0.1-0.8-0.2-1.2-0.2c0.4,0.1,0.7,0.2,1,0.2
						C323,9,322,9,321,9.1l-0.4-0.5c-0.1,0-0.1,0-0.2,0c-1-0.2-0.8,0.2-0.3,0.6c-0.5,0.1-1,0.2-1.3,0.3c-0.8-0.8-2.6,0.3-3.7-0.6
						c-0.7,0.4-5,0.3-5.5,1.2c0-0.1-0.3-0.2,0.2-0.2c-1.1-0.1-2.2-0.2-3.2,0l-0.5-0.6l-2.4,0.8c-1.5-0.4-2.1-0.6-0.6-1.1
						c-3.5,0.7-2.9,0.3-5.8,1l0.1-0.4c-1.1,0-2.8,0.5-3.4,0.2c-2.4-0.8-11.8-0.1-18-0.8c1.2,1.2-2.9-0.5-3.1,0.4
						c-0.4-0.3-1.2-0.4-0.2-0.7c-3.1,0.3-4.7-0.4-6.9,0.3c-0.4-0.3,0.7-0.4,0.4-0.6c-0.3,0.1-1,0.2-1.3,0.1c-0.3-0.2,0.5-0.2,1-0.4
						c-3.2,0-3.5,0.9-3.8,1.7c-1.6-0.4-2.4-0.3-3.6,0.2c-0.6-0.3-1.5-0.5,0.5-0.6c-1.1,0-6.8-0.4-6.9,0.3c-0.4-0.2-1.6,0-1.9,0
						c-2.5,0-2.7-0.1-5.2,0l0.7,0.1c-1,0.8-2,0.2-4,0.3l0.1-0.1c-4.6-0.6-2,0.3-6.5-0.4l0.2,0.5c-0.4,1-4-0.6-6.6-0.2l0.9,0.3
						c-1.4,0.4-4-1.4-5.4-1.5c-0.3-0.1,0.5-0.1,0.9-0.2c-3.7-0.6-0.5,0.6-3.3,0.8c-0.5-0.3,0.7-0.9-1.2-0.9c-0.9-0.3-5.4,1.1-8,0.5
						c0.6,0.3,1.1,0.5-0.2,0.7c-2,0.1-5.4-1-7.2-0.2c-0.3-0.1-0.3-0.1-0.4-0.2c-1.5,0.2-4.9,0.4-5.9,0.8c-1.4-1.7-9.4,0.8-9.4-0.7
						l-4.7,0.1l0.1-0.2c-3-0.1-4,0.3-5.1,0.6c-0.7-0.1-0.2-0.2-0.1-0.3c-4.4-0.3-4.8-0.2-8.5,0.5l-0.4-0.5c-1,0.3-6.3-0.8-10.6-0.2
						c0-0.1,0.1-0.2,0.5-0.2c-4.8,0.6-11.5-1.4-13.3,0.4l-3.2,0.4c4.1,0.1-0.6,0.8,1.1,1.1c-1.6,0.1-4.2-0.5-2.2-0.6l0.3,0.1
						c0.7-0.9-5.1-0.3-5-1c-8.1,0-16-0.5-23.6-0.5l0.9,0.7l-2.6,0c-0.7-0.2-0.9-0.6,1-0.5c-1-0.4-3.2,0.3-3.2,0.5
						c-3.7-0.3,1.4-0.9,0.3-0.9L110,8.9l0.3,0.1c-1.2,0.3-1.4,0.6-3.6,0.6c-1.4-0.1-0.7-0.5-1.3-0.5c0-0.1-0.2-0.1-0.9,0L101.2,9
						l1.3,0.6c-1.5,0.3-3.1,0-1.6,0.6c-2.3-1-12.4-0.4-13.8-0.7c-2.1,0.4-4.1,0.4-6.6,0.4c0.6,0.1,1,0.8-1.2,0.7
						c0.8-1.3-4-0.6-5.8-1.5c1.6,0.6-6.2,0.2-3.7,1.1c-1.8-0.1-0.1-0.5-1.5-0.8C64.1,9.8,58.9,9,53.5,9.1c-0.1,0.2,0.8,0.4-0.3,0.7
						L50.3,9c-1.1,0.1-1,1-2.9,0.4c0.3,0.1,0.7,0.4,0,0.4C36.9,8.9,26,10.5,15.3,8.9c1.4,0.3,0.5,0.4-0.6,0.4c0.7,0.1,0,0.4,0.1,0.7
						l-4.5-0.7c-0.8,0.7-4.8,0-5.2,0.7l1.4-0.1c-1.9,0.7,2.6,1.7,2.4,2.6c2.1-0.8,5.5,1.3,9,0c0.8,0.2-0.6,0.3-0.2,0.5
						c0.9-0.4,1.9-0.5,3.9-0.3l-0.2,0.1c5.5-0.1,7.9,0.3,14,0.6l-0.5-0.5c1.3,0.1,1.6,0.2,2.2,0.3c1.5-0.7-3.7,0-2.3-0.8
						c1.8,1,9.4,0,10.5,1.1c2,0-0.6-0.5,1.4-0.5l0.5,0.3l0.5-0.4c1.3,0.1,2,0.4,2.1,0.7c-0.3,0-0.9,0.1-1.3,0.1
						c1.7,0.3,4.9-0.1,5.5,0l-2-0.2c5.6-0.3,12.4,0.1,17.8-0.5l-0.4-0.2c4.1-0.4,3.3,0.2,7.8,0.1l-0.2,0.1c0.9-0.2,2.1-0.3,3.3-0.3
						c-1.1,0.3,2.1,0.5,0.6,0.8c4.5-0.4,2.2-0.3,5.1-1.2l0.7,0.4c1-0.3,1.1-0.5,3.3-0.6c-1.8,0.3,1.4,0.6-0.6,1
						c4.7,0.8,7-0.8,9.2,0.4c2.2-1-4.1-0.6-2.9-0.8c-1-0.3,1.8-0.8,3.3-0.7c1.5,0,2.6,1.3,6.4,1.3c-0.4,0-0.4,0.1-0.8,0.1
						c1.4,0.3,2.8-0.4,4.5,0.1c1-0.6,2.3,0,2.5-0.8l-3.5,0.2c2-0.2,3.8-1.1,7.1-0.7c-0.3,0.2-1.2,0.4-1.9,0.5c1,0.2,1.8-0.2,2.8,0.1
						c-0.3,0.8-4.2,0.2-6.4,0.8c1,0.3,4-0.6,2.9,0.3c1.5-1.1,3.7,0.1,6.3-0.7l-0.2,0.5c0.4-0.1,1.3-0.3,2-0.3l-1.4,0.6
						c2.1-0.5,4,0.5,6,0.2c-4.2,0-0.9-0.6-2.7-0.9c5.2-0.6,3,1.2,8.7,1c-0.8,0.1-2.9-0.3-1.7-0.5c1.1,0.1,2.6,0.3,3.2,0.5
						c3.8-0.1-0.6-0.5,1-0.8c1.3,0.6,1.9-0.2,3.6-0.4l0,0.5c4.4,0.3,1.2-1,5.1-0.6l-1.7,0.7l2-0.2l-0.4,0.5c2.2-0.4,2.9-0.3,5.1-0.1
						c-0.5-0.3,0.3-0.9,2.2-0.9c1.3,0.3-0.7,0.5,2,0.4c-0.6,0.3-1.3,0.7-2.5,0.2c-0.1,0.2-0.6,0.3-0.7,0.5c1.4,0.3,3.6,0.1,4.6,0.1
						c-0.4,0-0.8,0-1.1-0.1l4-0.7c0.6,0.2,0.1,0.3-0.4,0.5c0.8-0.1,1.4-0.3,2.5-0.3c-0.3,0.4-0.2,0.8-1.9,1l3.8-0.4
						c0.3,0.2,1.9,0.5,1.5,0.6c2.1,0.2,5.1-0.8,7.9-0.5c0.1-0.1,0.4-0.1,1-0.2c2.6,0.1,4.9,0.6,8,0l1.8,0.7c2.4-0.2-2.4-0.9,1.7-1.2
						c2.9-0.2,1.1,0.6,2.1,0.8c1.4-0.4,3.9-1.1,6.5-0.5C190.2,13.8,189.5,13.7,188.7,13.7z M218.6,13.4c-0.6,0.1-1.7,0.4-2.2,0.1
						C217.1,13,217.7,13.2,218.6,13.4z M264.1,12.2c-0.4,0.2-1.1,0.1-1.8-0.1C262.8,12.1,263.4,12.1,264.1,12.2z M390.8,8.9
						C390.8,8.9,390.8,8.9,390.8,8.9C389.4,8.7,389.9,8.8,390.8,8.9z M393.5,9.1c0.3-0.1,0.3-0.1,0.1-0.2C393.4,9,392.8,9,392.1,9
						C392.3,9.1,392.7,9.2,393.5,9.1z M105.1,9.3l0.5,0.1C104.5,9.5,104.8,9.4,105.1,9.3z"/>
					<path class="st0" d="M259,12.9c-0.2-0.1-0.2-0.2-0.2-0.3C258.5,12.7,258.5,12.8,259,12.9z"/>
					<path class="st0" d="M170.1,14C170.1,14,170.1,14,170.1,14c-0.1,0-0.2,0.1-0.2,0.1L170.1,14z"/>
					<path class="st0" d="M351.9,13.2c-0.6-0.1-0.9-0.2-1.1-0.2C350.8,13,351,13.1,351.9,13.2z"/>
					<path class="st0" d="M407.7,8.3L406,8.4c0.8,0,1.1,0.1,1.5,0.2C407.5,8.4,407.2,8.3,407.7,8.3z"/>
					<path class="st0" d="M422.6,11.3c0.3-0.1,0.5,0,0.8-0.1l-0.1-0.2C422.3,11,421.5,11.2,422.6,11.3z"/>
					<path class="st0" d="M409.3,9.9c0.1,0.4,1.2,0.3,2.4,0.2c-0.1,0-0.1,0-0.2,0C411.9,9.5,410.6,9.7,409.3,9.9z"/>
					<path class="st0" d="M412,10.1c0.4,0,0.8,0,1.1,0C413.3,9.8,412.7,10,412,10.1z"/>
					<path class="st0" d="M396.9,8.8c0.6,0.1,0.4-0.5,0.7-0.4C398.2,8,393.8,9.1,396.9,8.8z"/>
					<polygon class="st0" points="410.3,11.2 409.8,10.7 409.2,11.1 					"/>
					<path class="st0" d="M400.8,10.8l1.9,0.1c0-0.1,0.2-0.1,0.5-0.2C402,10.8,400.7,10.7,400.8,10.8z"/>
					<path class="st0" d="M403.2,10.8c0.6,0,1.2,0,1.5-0.1C404.4,10.7,403.7,10.7,403.2,10.8z"/>
					<polygon class="st0" points="407.6,11.4 407.1,11.3 405.7,11.2 					"/>
					<path class="st0" d="M380.1,10.7l-2.1,0.1c-0.2,0.2,0.4,0.3,1.1,0.2C379.6,11,380.4,10.9,380.1,10.7z"/>
					<path class="st0" d="M386.4,12.1c-0.6-0.1-0.6-0.2-0.9-0.4l-0.1,0.6L386.4,12.1z"/>
					<path class="st0" d="M380.3,12.3c-0.2,0.2-3,0.5-0.4,0.5C380.1,12.5,382.2,12.4,380.3,12.3z"/>
					<polygon class="st0" points="348.6,11.5 349.2,11.5 349.1,10.5 					"/>
					<path class="st0" d="M320.7,13.9c2.5,0.2,0.6-0.6,2.8-0.3c0.6-0.2-1.8-0.2-1.2-0.5C320.8,13.4,320.1,13.2,320.7,13.9z"/>
					<path class="st0" d="M322.3,13.1c0.2,0,0.5-0.1,0.8-0.2C322.7,13,322.5,13.1,322.3,13.1z"/>
					<polygon class="st0" points="7.4,8.8 5.8,8.6 6.8,8.9 					"/>
					<path class="st0" d="M4.3,9.5L3.9,8.9L3,9.5C3.3,9.4,4.1,9.4,4.3,9.5z"/>
					<path class="st0" d="M223.1,14.7l0.1-0.2c-0.2-0.2-0.6-0.2-1.4-0.2L223.1,14.7z"/>
					<polygon class="st0" points="201.4,14.2 201.8,14.2 201.1,13.6 					"/>
					<path class="st0" d="M183.2,15c0.7,0,1.6-0.1,2.4-0.1C183.9,15,183,14.2,183.2,15z"/>
				</g>
			</g>
		</g>
	</g>
</g>
</svg>
